# xmcd
#
# Track frame offsets:
#	150
#	2053
#	13768
#	26513
#	32809
#	41607
#	56033
#	60168
#	63944
#	71502
#	82308
#	85967
#	106264
#	112061
#	116797
#	133301
#	139416
#	143049
#	148586
#	153219
#	158985
#	173732
#	178268
#	185825
#	200434
#	202468
#	208579
#	225064
#	239784
#	258767
#	272774
#
# Disc length: 3718 seconds
#
# Revision: 0
# Processed by: cddbd v1.5.2PL0 Copyright (c) Steve Scherf et al.
# Submitted via: EasyCDDAExtractor 16.1.0.1
#
DISCID=d10e841f
DTITLE=HOBO - Ady Endre - A föltámadás szomorúsága
DYEAR=2014
DGENRE=Blues
TTITLE0=A poéta és a publikum
TTITLE1=A föltámadás szomorúsága
TTITLE2=Kétkedő, magyar lelkem
TTITLE3=Nagy lopások bűne
TTITLE4=Az undor óráiban
TTITLE5=A perc-emberkék után
TTITLE6=Én nem vagyok magyar!
TTITLE7=A ma kiebrudaltjai
TTITLE8=A sátán kevélye
TTITLE9=Menekülj, menekülj innen
TTITLE10=Sem utódja, sem boldog őse
TTITLE11=A bélyeges sereg
TTITLE12=A befalazott diák
TTITLE13=Az utolsó hajók
TTITLE14=Szent Margit legendája
TTITLE15=Egy ócska konflisban
TTITLE16=Eldönti a sors
TTITLE17=Beteg szívemet hallgatod
TTITLE18=Mert engem szeretsz
TTITLE19=Tüzes seb vagyok
TTITLE20=Nézz, drágám kincseimre
TTITLE21=Őrizem a szemed
TTITLE22=Az én mennyasszonyom
TTITLE23=Az ágyam hívogat
TTITLE24=Ha holtan találkozunk
TTITLE25=Szétverek majd köztetek
TTITLE26=A muszáj-Herkules
TTITLE27=Felelet az életnek
TTITLE28=Most már megállhatok
TTITLE29=Adjon Isten mindenkinek
TTITLE30=Intés az őrzőkhöz
EXTD=
EXTT0=
EXTT1=
EXTT2=
EXTT3=
EXTT4=
EXTT5=
EXTT6=
EXTT7=
EXTT8=
EXTT9=
EXTT10=
EXTT11=
EXTT12=
EXTT13=
EXTT14=
EXTT15=
EXTT16=
EXTT17=
EXTT18=
EXTT19=
EXTT20=
EXTT21=
EXTT22=
EXTT23=
EXTT24=
EXTT25=
EXTT26=
EXTT27=
EXTT28=
EXTT29=
EXTT30=
PLAYORDER=
